<svg width="512" height="512" viewBox="0 0 512 512" fill="none" xmlns="http://www.w3.org/2000/svg">
<path d="M345.6 226.133C341.333 230.4 337.067 232.533 330.667 232.533C324.267 232.533 320 230.4 315.733 226.133L277.333 187.733V377.6C277.333 390.4 266.667 398.933 256 398.933C245.333 398.933 234.667 390.4 234.667 377.6V187.733L196.267 226.133C187.733 234.667 174.933 234.667 166.4 226.133C157.867 217.6 157.867 204.8 166.4 196.267L241.067 121.6C249.6 113.067 262.4 113.067 270.933 121.6L345.6 196.267C354.133 204.8 354.133 217.6 345.6 226.133Z" fill="black"/>
</svg>
