<svg width="512" height="512" viewBox="0 0 512 512" fill="none" xmlns="http://www.w3.org/2000/svg">
<path d="M330.667 149.333C326.4 153.6 320 155.733 315.733 155.733C309.333 155.733 305.067 153.6 300.8 149.333L277.333 125.867V437.333C277.333 448 266.667 458.667 256 458.667C245.333 458.667 234.667 448 234.667 437.333V125.867L211.2 149.333C202.667 157.867 189.867 157.867 181.333 149.333C172.8 140.8 172.8 128 181.333 119.467L241.067 59.7334C249.6 51.2 262.4 51.2 270.933 59.7334L330.667 119.467C339.2 128 339.2 142.933 330.667 149.333Z" fill="black"/>
</svg>
