<svg width="512" height="512" viewBox="0 0 512 512" fill="none" xmlns="http://www.w3.org/2000/svg">
<path d="M113.067 174.933L177.067 238.933C181.333 243.2 187.733 245.333 192 245.333C196.267 245.333 202.667 243.2 206.933 238.933C215.467 230.4 215.467 217.6 206.933 209.067L179.2 181.333H277.333C324.267 181.333 362.667 219.733 362.667 266.667V416C362.667 426.667 373.333 437.333 384 437.333C394.667 437.333 405.333 426.667 405.333 416V266.667C405.333 196.267 347.733 138.667 277.333 138.667H179.2L206.933 110.933C215.467 102.4 215.467 89.6 206.933 81.0666C198.4 72.5333 185.6 72.5333 177.067 81.0666L113.067 145.067C104.533 153.6 104.533 166.4 113.067 174.933Z" fill="black"/>
</svg>
