<svg width="512" height="512" viewBox="0 0 512 512" fill="none" xmlns="http://www.w3.org/2000/svg">
<path d="M228.267 64C162.133 64 106.667 119.467 106.667 185.6V426.667C106.667 437.333 117.333 448 128 448C138.667 448 149.333 437.333 149.333 426.667V185.6C149.333 142.933 185.6 106.667 228.267 106.667C270.933 106.667 309.333 142.933 309.333 187.733V268.8L292.267 251.733C283.733 243.2 270.933 243.2 262.4 251.733C258.133 256 256 260.267 256 266.667C256 273.067 258.133 277.333 262.4 281.6L315.733 334.933C324.267 343.467 337.067 343.467 345.6 334.933L398.933 281.6C407.467 273.067 407.467 260.267 398.933 251.733C390.4 243.2 377.6 243.2 369.067 251.733L352 268.8V185.6C352 119.467 296.533 64 228.267 64Z" fill="black"/>
</svg>
