<svg width="512" height="512" viewBox="0 0 512 512" fill="none" xmlns="http://www.w3.org/2000/svg">
<path d="M398.933 174.933L334.933 238.933C330.667 243.2 324.267 245.333 320 245.333C315.733 245.333 309.333 243.2 305.067 238.933C296.533 230.4 296.533 217.6 305.067 209.067L332.8 181.333H234.667C187.733 181.333 149.333 219.733 149.333 266.667V416C149.333 426.667 138.667 437.333 128 437.333C117.333 437.333 106.667 426.667 106.667 416V266.667C106.667 196.267 164.267 138.667 234.667 138.667H332.8L305.067 110.933C296.533 102.4 296.533 89.6 305.067 81.0666C313.6 72.5333 326.4 72.5333 334.933 81.0666L398.933 145.067C407.467 153.6 407.467 166.4 398.933 174.933Z" fill="black"/>
</svg>
