<svg width="512" height="512" viewBox="0 0 512 512" fill="none" xmlns="http://www.w3.org/2000/svg">
<path d="M352 44.8H247.467C234.667 44.8 226.133 53.3334 226.133 66.1334C226.133 78.9334 234.667 87.4667 247.467 87.4667H296.533L147.2 219.733C142.933 224 140.8 230.4 140.8 236.8V450.133C140.8 462.933 149.333 471.467 162.133 471.467C174.933 471.467 183.467 462.933 183.467 450.133V247.467L332.8 115.2V170.667C332.8 183.467 341.333 192 354.133 192C366.933 192 375.467 183.467 375.467 170.667V66.1334C373.333 53.3334 364.8 44.8 352 44.8Z" fill="black"/>
</svg>
