<svg width="512" height="512" viewBox="0 0 512 512" fill="none" xmlns="http://www.w3.org/2000/svg">
<path d="M160 44.8H264.533C277.333 44.8 285.867 53.3334 285.867 66.1334C285.867 78.9334 277.333 87.4667 264.533 87.4667H215.467L364.8 219.733C369.067 224 371.2 230.4 371.2 236.8V450.133C371.2 462.933 362.667 471.467 349.867 471.467C337.067 471.467 328.533 462.933 328.533 450.133V247.467L179.2 115.2V170.667C179.2 183.467 170.667 192 157.867 192C145.067 192 136.533 183.467 136.533 170.667V66.1334C138.667 53.3334 147.2 44.8 160 44.8Z" fill="black"/>
</svg>
